<svg version="1.2" xmlns="http://www.w3.org/2000/svg" viewBox="0 0 203 66" width="203" height="66"><defs><clipPath clipPathUnits="userSpaceOnUse" id="cp1"><path d="m-442-43h1584v1584h-1584z"/></clipPath></defs><style>.a{fill:#ac3335}.b{fill:#462e34}</style><g clip-path="url(#cp1)"><path fill-rule="evenodd" class="a" d="m146 46.5c0-5.2 3.9-9.7 9.6-9.7 5.7 0 9.5 4.5 9.5 9.6v0.1c0 5.1-3.9 9.7-9.6 9.7-5.7 0-9.5-4.5-9.5-9.7zm16.9 0c0-4.3-3.1-7.7-7.4-7.7-4.3 0-7.3 3.4-7.3 7.6v0.1c0 4.2 3.1 7.7 7.4 7.7 4.2 0 7.3-3.4 7.3-7.7zm10.9-9.5h1.9l8.6 18.8h-2.3l-2.2-4.9h-10.2l-2.2 4.9h-2.2zm5.3 12l-4.3-9.5-4.3 9.5zm7.4-11.8h2.1v11.1l10.8-11.1h2.7l-8 8.1 8.4 10.6h-2.7l-7.2-9.1-4 4v5.1h-2.1z"/><path fill-rule="evenodd" class="b" d="m18.3 43.5h-0.5c-1.3-3.6-3.6-5.7-6.9-5.7-2.8 0-7.4 2-7.4 8.7 0 6 3.7 9.1 7.6 9.1 3.4 0 6.3-2.3 6.9-5.9h0.3l0.1 5.6h-0.3c-0.3-0.5-0.6-0.9-0.9-1.1-1.6 1.3-3.8 2-6.5 2-7.6 0-10.1-5.2-10.1-9.4 0-5.4 3.9-9.6 10.2-9.6 2.7 0 4.4 0.8 6.1 1.7l0.9-1h0.3zm11-5.8c5 0 6.5 2.6 6.5 4.9 0 3.3-2.9 4.3-4.2 4.7 0.6 0.2 1.3 0.7 2.8 3.1 0.3 0.4 1.4 2.3 1.7 2.7 1.7 2.2 3.1 2.2 3.6 2.3v0.3h-4.9c-0.9-1-1.2-1.6-1.9-2.5l-1.3-2.1c-0.7-1.1-2.5-3.7-4.4-3.7h-0.9v4.9c0 2.3 0.3 2.9 2.4 3.1v0.3h-7v-0.3c1.9-0.3 1.9-1.8 1.9-2.8v-12c0-1.1 0-2.6-2.5-2.6v-0.3zm-3 9.2h2.1c2.2 0 4.7-1.4 4.7-4.4 0-2.4-1.4-4.3-5.2-4.3h-0.7c-0.7 0-0.9 0-0.9 0.8zm23.6 8.8h-8.2v-0.3c2.6-0.3 2.8-1.1 2.8-3.2v-10.9c0-2.2-0.2-3-2.8-3.3v-0.3h8.2v0.3c-2.6 0.3-2.8 1.1-2.8 3.3v10.9c0 2.1 0.2 2.9 2.8 3.2zm6.9-18l7.3 14.4 6.3-14.4h4.8v0.3c-1.5 0.1-2.1 0.9-2.1 2.4v11.5c0 1.3 0 3.4 2.4 3.5v0.3h-7.5v-0.3c2-0.3 2.4-1 2.4-3v-13.4l-7.2 16.7h-0.1l-8.1-16v11.7c0 2.9 1.2 3.8 3 4v0.3h-6.1v-0.3c1.6-0.2 2.5-0.7 2.5-3.9v-11c0-1.9-1-2.2-2.3-2.5v-0.3zm32.9 5.2h-0.3c-0.7-2.1-2.4-5.1-5.6-5.1-2.2 0-3.9 1.8-3.9 3.7 0 2.1 1.6 3 5.1 4.2 2.5 0.9 5.4 2.3 5.4 5.3 0 1.9-1.3 5.2-6.6 5.2-3.4 0-4.5-1.2-4.9-1.2-0.3 0-0.5 0.3-0.8 1h-0.3l-0.3-5h0.3c1.1 3.2 3.1 4.6 5.7 4.6 2.6 0 4.4-1.7 4.4-3.7 0-1.4-0.8-2.3-3.5-3.3-4.2-1.5-6.8-2.8-6.8-6 0-2.5 2-5.3 6.1-5.3 2.2 0 4 0.9 4.8 1.3 0.1-0.1 0.3-0.4 0.5-0.8h0.4zm21.9 4c0 5.1-4 9.3-9.7 9.3-4.8 0-9.5-3.2-9.5-9.7 0-4.2 3-9.2 9.8-9.2 5.7 0 9.4 4 9.4 9.6zm-16.3-0.3c0 3.9 2 9.1 6.6 9.1 5.1 0 6.9-5 6.9-8.8 0-4.7-1.9-9-6.5-9-5 0-7 5.5-7 8.7zm22-8.9l13.1 13.9v-9.3c0-3.7-1.6-4.1-3.4-4.3v-0.3h6.6v0.3c-2.2 0.2-2.5 1.7-2.5 4.3v13.8h-0.3l-14.6-15.5v10.5c0 2.9 1 4.1 2.8 4.4v0.3h-6.1v-0.3c2.3-0.4 2.6-1.6 2.6-4.3v-11.2c-1.3-1.4-1.6-1.8-2.6-2v-0.3z"/><path fill-rule="evenodd" class="a" d="m134.3 59.7c-0.8 0.4-1.6 1.1-2.3 2-0.6 0.8-1.3 1.7-1.7 2.6 2.6-9.2 7.4-19.1 12.5-26.7 0.5-0.8 0.8-1.5 0.7-2.8 0-0.6 0.2-1 0.8-1.9 1.1-1.7-0.7-2.5-0.8-3.8-0.1-1.2 1.6-1 2-1 0.2-0.1 0.4-0.4 0.4-0.7 0.2-1.4-1.2-4-0.4-5.1 1.3-1.7 2.3 1.1 3.3-0.1 0.6-0.8 0.4-1 0.3-1.8 0-1.2-0.3-2.4-0.3-3.5-0.1-1.4 0.6-2.5 0.6-3.9 0-3.1 3.1 0.3 3.5 1.3 0.2 0.2 0.4 1.3 1 0.6 0.5-0.5 1.2-1.6 1.4-1.8 0.6-0.6 0.8-2.4 0.8-3.1 0-0.9 0.6-6.1 2.5-4.2 0.3 0.3 1.2 1.2 1.2 1.4 0 0.4 1.1 1.3 1.7 1.5 0.5 0.5 2.3-2.4 2.4-2.8 0-0.6 1.6-2.7 2.2-3.2 0.5-0.4 0.9-1.9 1.9-1 1 1 1.2 2.2 1.8 2.6 0.5 0.6 2.7-1.8 3.4-2.3 1.8-1.3 2-1.4 3.4-0.1 0.8 0.8 2-0.7 3-0.7 1.7 0.1 2.1-0.6 3.7-0.1 0.8 0.9-1.9 2.5-1.4 3 1.2 1.2-0.4 2.4-1.8 3.4-0.4 0.3-2.7 1.3-1.2 1.8 0.7 0.6 6 0.6 3.4 2.5-2 1.6-4.3 2.2-6.3 2.8-0.8 0.2-3.6 1.9-2.6 2.8 1.5 1.4 3.8 2.1 5.3 3.6 1 0.9 0 0.6-0.6 1.2-0.6 0.5-2.2 0.4-2.8 0.9-1.2 1.2-2.1 1.4-3.5 1-0.9-0.3-4.2-0.3-5.1 0.3 0-0.1-1.9-0.3-2.1-0.3-0.6 0.1-1.4 0.1-1.4 1 0 0.4-0.3 1 0.1 1.5 1.6 1.4 3.8 1.6 4.9 3.1 0.7 0.6-1.6 1.2-1.8 1.2-0.4 0.1-2.3 0.2-2.6 0.4-0.4 0.6-0.9 0.9-1.3 0.9-1.6 0.2-6-2-7.2-0.9 1.1 1.2 0.9 2.5 0 3.8-0.4 0.5-3.2 0-3.7 0.1-0.7 0.1-1.1 0.7-2.1 0.4-1.1-0.3-0.8 2.1-2.4 1.7-0.6-0.1-1.1 0.2-2 0.8-0.8-0.1-6.9 10.6-8.7 15.5-0.6 2.2 0.4 4.8-2.1 6.1zm-0.2-1.2c0.8-0.5 1.1-2.9 1.2-4.2 0.9-3.9 8.4-17.1 12-21 1.3-0.4 4.5 0.4 5.7-0.4-1.3 0.7-3.9-0.2-5.4 0q1.3-1.9 2.7-3.9c1.1 0.5 3.4 0.3 5.8 0.2 2.2-0.2 4.4-0.3 5.9-0.1-2.5-0.4-4.6-0.4-6.4-0.3-2 0.1-3.6 0.3-4.9-0.2 1.5-2 3.6-4.4 5.2-6.4 1.9-0.9 5.7-1.6 9.4-1.7 3.7-0.2 7.2 0.1 8.2 0.8-1.3-0.9-4.8-1.2-8.4-1.1-3.5 0.1-7.1 0.7-8.7 1.4q1.6-1.8 3.2-3.5c1-1 2.6-2.4 3.5-3.3 2 0.5 5.4-0.1 8.6-0.9 3.2-0.8 6.2-1.8 7.1-2.2-1.9 0.6-5 1.4-8.1 2.1-2.9 0.6-5.8 1.1-7.3 0.7 3-2.6 6.6-5.1 9.4-7.1 3.8-0.2 5.5-1.4 6.2-1.7-1.3 0.6-4.7 1.4-5.7 1.4 2.6-1.7 5.8-3.5 8.3-5-3.1 1.5-6.8 3.6-9.7 5.5 0-1.4 1.5-3.7 1.8-4-1 0.9-2 3-2.2 4.3-2.3 1.6-5.1 3.5-7.3 5.3-0.5-2.4 3.7-7.7 2.8-8.8 0.2 1.9-3.7 6.3-3.1 9.1-2.2 2-5 4.6-7.1 6.7 0.7-2.1 1.7-5.2 1-9.3 0.3 1.8-0.2 6.6-1.5 9.9-1.3 1.5-3.1 3.4-4.3 4.9-0.5-2.2-0.6-4.3-0.7-6.8-0.1-2.5-0.1-4.4-0.3-4.6 0.1 0.6 0 2.9 0.1 5.5 0.1 2.6 0.1 4.6 0.5 6.4q-1.5 1.9-2.9 3.8c-0.5-1-1.2-4.6-1.6-5.2 0.4 0.8 0.7 3.9 1.4 5.6q-1 1.4-2 2.8c-0.2-1.4-1.3-3.5-1.5-3.3 0.7 1.1 1.1 2.9 1.2 3.7-5.1 6-13.1 21.7-15.5 29.5 1-1.8 1.8-3.4 3.4-4.6zm28.5-29.2q-0.3-0.1-0.6-0.2 0.3 0.1 0.6 0.2zm-27.2 33.8c4.3 0.1 7.6-0.4 13-1.3 4.3-0.7 8.5-1.2 11.6-1.3 3.9 0 5.9 0.8 3.8 3.3-0.6 0.7-0.1 1 1 1 3.5-0.1 8.6-1.5 13.3-2.5 9.3-2.1 18.3-2.6 23.9-0.3 1.1 0.5-0.7 1.2-1.3 0.9-5.3-2.4-13.8-2.2-23-0.2-5 1.1-10.4 2.5-14 2.5-1.2 0.1-1.7-0.2-1.1-0.9 2.1-2.5 0-3.2-3.8-3.2-3.1 0.1-7.3 0.6-11.5 1.2-5.2 0.7-10.3 1.3-12.6 0.9-0.7-0.1 0.5-0.1 0.7-0.1z"/></g></svg>