<svg version="1.2" xmlns="http://www.w3.org/2000/svg" viewBox="0 0 219 70" width="219" height="70"><defs><clipPath clipPathUnits="userSpaceOnUse" id="cp1"><path d="m-487-1203h1584v1584h-1584z"/></clipPath></defs><style>.a{fill:#fefefe}</style><g clip-path="url(#cp1)"><path fill-rule="evenodd" class="a" d="m159.1 49.1v-0.1c0-5.4 4-10.1 10-10.1 6 0 10 4.6 10 10v0.1c0 5.4-4.1 10.1-10.1 10.1-5.9 0-9.9-4.6-9.9-10zm17.7 0v-0.1c0-4.4-3.3-8.1-7.8-8.1-4.4 0-7.6 3.6-7.6 8v0.1c0 4.5 3.2 8.1 7.7 8.1 4.5 0 7.7-3.6 7.7-8zm11.4-10h2.1l8.9 19.7h-2.4l-2.3-5.2h-10.7l-2.3 5.2h-2.3zm5.5 12.5l-4.4-9.9-4.5 9.9zm7.7-12.4h2.2v11.7l11.3-11.7h2.8l-8.4 8.6 8.8 11h-2.8l-7.5-9.4-4.2 4.2v5.2h-2.2z"/><path fill-rule="evenodd" class="a" d="m19.1 46h-0.5c-1.4-3.9-3.9-6.1-7.4-6.1-3 0-7.9 2.2-7.9 9.4 0 6.4 3.9 9.7 8.1 9.7 3.7 0 6.8-2.5 7.3-6.3h0.4l0.1 6h-0.3c-0.3-0.6-0.6-0.9-0.9-1.2-1.8 1.4-4.1 2.1-7.1 2.1-8.1 0-10.7-5.6-10.7-10 0-5.9 4.1-10.3 10.8-10.3 3 0 4.8 0.8 6.6 1.9l1-1.2h0.3zm11.8-6.2c5.3 0 6.9 2.8 6.9 5.2 0 3.6-3 4.7-4.5 5.1 0.7 0.2 1.4 0.8 3 3.3 0.3 0.5 1.6 2.5 1.9 2.9 1.8 2.4 3.3 2.4 3.8 2.5v0.3h-5.2c-1-1.1-1.3-1.7-2.1-2.7l-1.3-2.2c-0.8-1.2-2.7-4-4.8-4h-0.9v5.3c0 2.4 0.3 3.1 2.6 3.3v0.3h-7.5v-0.3c2-0.3 2-1.9 2-3v-12.9c0-1.2 0-2.8-2.6-2.8v-0.3zm-3.3 9.8h2.3c2.3 0 5-1.5 5-4.7 0-2.5-1.6-4.6-5.6-4.6h-0.7c-0.8 0-1 0.1-1 0.9zm25.2 9.5h-8.7v-0.3c2.8-0.4 3-1.2 3-3.5v-11.7c0-2.3-0.3-3.2-3-3.5v-0.3h8.7v0.3c-2.7 0.3-2.9 1.2-2.9 3.5v11.7c0 2.3 0.2 3.1 2.9 3.5zm7.5-19.4l7.8 15.5 6.7-15.5h5.2v0.4c-1.7 0.1-2.3 0.9-2.3 2.5v12.4c0 1.4 0 3.6 2.6 3.7v0.4h-8v-0.4c2-0.3 2.6-1.1 2.6-3.2v-14.4l-7.8 18h-0.1l-8.7-17.2v12.5c0 3.1 1.3 4.1 3.2 4.3v0.4h-6.5v-0.4c1.8-0.2 2.6-0.8 2.6-4.2v-11.7c0-2.1-0.9-2.4-2.4-2.7v-0.4zm35.2 5.6h-0.3c-0.7-2.2-2.6-5.4-5.9-5.4-2.5 0-4.2 1.9-4.2 4 0 2.2 1.7 3.1 5.4 4.4 2.7 0.9 5.8 2.5 5.8 5.7 0 2.1-1.4 5.5-7 5.5-3.7 0-4.9-1.2-5.3-1.2-0.3 0-0.5 0.3-0.8 1h-0.3l-0.4-5.3h0.4c1.1 3.4 3.2 5 6 5 2.9 0 4.7-1.9 4.7-4 0-1.5-0.8-2.5-3.7-3.6-4.5-1.6-7.3-3-7.3-6.4 0-2.7 2.1-5.7 6.5-5.7 2.4 0 4.3 1 5.1 1.4 0.2-0.1 0.4-0.4 0.6-0.8h0.4zm23.5 4.2c0 5.5-4.3 10-10.4 10-5.2 0-10.1-3.4-10.1-10.4 0-4.5 3.2-9.8 10.4-9.8 6.1 0 10.1 4.2 10.1 10.2zm-17.5-0.3c0 4.2 2.2 9.7 7.1 9.7 5.4 0 7.4-5.3 7.4-9.4 0-4.9-2.1-9.6-7-9.6-5.3 0-7.5 5.9-7.5 9.3zm23.6-9.5l14.1 14.8v-9.9c0-4-1.8-4.4-3.7-4.6v-0.3h7.1v0.3c-2.4 0.2-2.7 1.8-2.7 4.6v14.8h-0.3l-15.7-16.6v11.2c0 3.1 1.1 4.4 3 4.7v0.3h-6.5v-0.3c2.5-0.4 2.8-1.7 2.8-4.5v-12c-1.4-1.5-1.8-1.9-2.8-2.2v-0.3z"/><path fill-rule="evenodd" class="a" d="m143.4 63.4c-0.9 0.4-1.7 1.2-2.5 2.1-0.7 0.8-1.4 1.8-1.8 2.8 2.8-9.8 7.9-20.4 13.3-28.6 0.6-0.8 1-1.6 0.8-2.9 0-0.8 0.2-1.2 0.9-2.2 1.1-1.7-0.8-2.6-0.9-4-0.1-1.3 1.7-1 2.1-1.1 0.3 0 0.5-0.4 0.5-0.8 0.3-1.4-1.3-4.2-0.4-5.4 1.3-1.8 2.4 1.3 3.5-0.1 0.6-0.8 0.4-1 0.3-1.9 0-1.2-0.3-2.6-0.4-3.8 0-1.4 0.7-2.6 0.7-4.2 0.1-3.3 3.4 0.4 3.8 1.5 0.2 0.2 0.4 1.4 1.1 0.6 0.5-0.5 1.2-1.7 1.5-1.9 0.6-0.7 0.8-2.6 0.8-3.3 0.1-1 0.6-6.5 2.7-4.5 0.3 0.3 1.3 1.2 1.2 1.5 0 0.3 1.2 1.4 1.9 1.5 0.6 0.6 2.5-2.5 2.5-3 0.1-0.6 1.8-2.8 2.4-3.4 0.6-0.4 1-2 2-1 1.1 1.1 1.4 2.3 1.9 2.8 0.7 0.6 3-1.9 3.7-2.5 2-1.4 2.2-1.5 3.6-0.1 0.9 0.8 2.2-0.8 3.3-0.7 1.8 0 2.3-0.7 3.9-0.1 0.9 0.9-2 2.6-1.4 3.2 1.3 1.2-0.5 2.5-2 3.6-0.4 0.3-2.9 1.4-1.3 1.9 0.8 0.7 6.4 0.6 3.7 2.7-2.2 1.7-4.6 2.3-6.8 2.9-0.8 0.3-3.8 2.1-2.8 3.1 1.6 1.5 4.1 2.3 5.8 3.8 1 1 0 0.7-0.7 1.4-0.7 0.5-2.4 0.3-3 0.9-1.3 1.2-2.3 1.5-3.7 1.1-1-0.3-4.6-0.3-5.5 0.2-0.1 0-2.1-0.2-2.3-0.2-0.6 0-1.5 0.1-1.4 1 0 0.5-0.5 1.1 0.1 1.6 1.6 1.5 4 1.7 5.2 3.3 0.7 0.7-1.8 1.4-2 1.4-0.4 0-2.5 0.1-2.7 0.4-0.5 0.6-1 0.9-1.5 1-1.7 0.1-6.4-2.2-7.7-1 1.3 1.2 1.1 2.7 0.1 4-0.4 0.5-3.4 0-4 0.1-0.8 0.1-1.2 0.8-2.3 0.5-1.2-0.3-0.9 2.2-2.6 1.8-0.5-0.1-1.1 0.2-2.1 0.8-0.8-0.1-7.3 11.4-9.3 16.7-0.6 2.4 0.4 5.1-2.2 6.5zm-0.2-1.3c0.8-0.6 1.1-3.1 1.3-4.5 0.9-4.2 8.9-18.3 12.8-22.5 1.4-0.4 4.7 0.4 6-0.4-1.4 0.8-4.1-0.3-5.7 0q1.4-2.1 2.9-4.1c1.2 0.5 3.7 0.3 6.3 0.1 2.2-0.2 4.6-0.3 6.2 0-2.6-0.5-4.9-0.5-6.9-0.4-2.1 0.2-3.8 0.3-5.2-0.2 1.7-2.2 3.9-4.8 5.6-6.8 2-1.1 6.1-1.7 10-1.9 4-0.2 7.8 0.2 8.9 0.9-1.5-1-5.2-1.3-9.1-1.2-3.8 0.1-7.6 0.7-9.2 1.5q1.7-1.9 3.4-3.8c1-1 2.7-2.6 3.7-3.5 2.2 0.6 5.8-0.1 9.2-1 3.5-0.8 6.7-1.9 7.6-2.4-2 0.7-5.4 1.6-8.6 2.3-3.2 0.7-6.2 1.2-7.9 0.8 3.2-2.8 7.1-5.5 10.1-7.6 4-0.3 5.9-1.5 6.6-1.8-1.3 0.6-5 1.5-6.1 1.4 2.8-1.8 6.2-3.7 8.9-5.3-3.3 1.7-7.2 3.9-10.3 5.9-0.1-1.5 1.5-3.9 1.9-4.3-1.1 1-2.2 3.2-2.4 4.6-2.4 1.7-5.5 3.8-7.8 5.7-0.5-2.6 3.9-8.3 3-9.5 0.2 2.1-4 6.8-3.3 9.8-2.4 2.1-5.4 4.9-7.6 7.2 0.7-2.3 1.8-5.6 1-10 0.3 2-0.2 7.1-1.6 10.7-1.4 1.5-3.3 3.6-4.6 5.2-0.5-2.3-0.6-4.6-0.7-7.3-0.2-2.7-0.2-4.8-0.3-4.9 0 0.7 0 3.1 0.1 5.9 0 2.8 0.1 4.9 0.5 6.8q-1.6 2-3.1 4.1c-0.5-1-1.3-5-1.7-5.6 0.4 0.9 0.7 4.2 1.4 6q-1 1.5-2.1 3c-0.2-1.5-1.4-3.8-1.6-3.5 0.8 1.2 1.2 3.1 1.3 3.9-5.5 6.4-14 23.3-16.5 31.7 1-2 1.8-3.7 3.6-5zm30.4-31.3q-0.3-0.1-0.6-0.1 0.3 0 0.6 0.1zm-29 36.3c4.5 0 8.1-0.5 13.9-1.4 4.5-0.8 9.1-1.4 12.4-1.4 4.1-0.1 6.3 0.8 4 3.5-0.6 0.8-0.1 1 1.1 1 3.7 0 9.2-1.5 14.3-2.7 10-2.2 19.6-2.7 25.5-0.2 1.2 0.5-0.7 1.3-1.4 1-5.6-2.6-14.7-2.4-24.6-0.3-5.3 1.1-11.1 2.7-15 2.7-1.2 0-1.8-0.2-1.1-1 2.2-2.7 0-3.4-4.1-3.4-3.3 0.1-7.9 0.7-12.3 1.3-5.6 0.7-11.1 1.4-13.5 0.9-0.7-0.1 0.6 0 0.8 0z"/></g></svg>