<?xml version="1.0" encoding="UTF-8"?>
<!DOCTYPE svg PUBLIC "-//W3C//DTD SVG 1.1//EN" "http://www.w3.org/Graphics/SVG/1.1/DTD/svg11.dtd">
<!-- Creator: CorelDRAW X8 -->
<svg xmlns="http://www.w3.org/2000/svg" xml:space="preserve" width="35.3748mm" height="7.937mm" version="1.1" style="shape-rendering:geometricPrecision; text-rendering:geometricPrecision; image-rendering:optimizeQuality; fill-rule:evenodd; clip-rule:evenodd"
viewBox="0 0 752 169"
 xmlns:xlink="http://www.w3.org/1999/xlink">
 <defs>
  <style type="text/css">
   <![CDATA[
    .fil1 {fill:#FEFEFE}
    .fil0 {fill:#FEFEFE;fill-rule:nonzero}
   ]]>
  </style>
 </defs>
 <g id="Layer_x0020_1">
  <metadata id="CorelCorpID_0Corel-Layer"/>
  <g id="_1492295746448">
   <path class="fil0" d="M214 90l0 -60 16 0c5,0 9,1 13,3 3,2 5,4 6,7 2,3 2,6 2,9 0,4 -1,7 -2,10 -2,2 -4,4 -7,6 -3,1 -6,2 -10,2l-7 0 0 23 -11 0zm11 -34l5 0c3,0 5,0 7,-2 2,-1 3,-3 4,-5 0,-3 -1,-5 -3,-6 -2,-1 -5,-2 -8,-2l-5 0 0 15zm46 -26l32 0 0 11 -21 0 0 14 20 0 0 10 -20 0 0 14 21 0 0 11 -32 0 0 -60zm67 0l9 0 25 59 -12 0 -7 -16 -21 0 -6 16 -12 0 24 -59zm4 15l-6 18 13 0 -7 -18zm39 14c0,-3 1,-6 2,-10 2,-3 4,-6 6,-9 3,-4 6,-6 10,-8 4,-2 8,-3 13,-3 3,0 7,1 11,2 4,2 7,4 10,7 3,3 5,6 7,9l-13 0c-4,-5 -9,-7 -15,-7 -4,0 -7,1 -10,3 -3,2 -5,4 -7,7 -2,3 -3,6 -3,10 0,3 1,6 2,8 1,3 2,5 4,7 2,1 4,3 6,4 3,1 5,1 8,1 6,0 11,-2 15,-7l12 0c-1,4 -3,6 -5,9 -2,2 -5,4 -8,5 -2,1 -5,2 -8,3 -2,1 -5,1 -7,1 -6,0 -11,-2 -15,-5 -4,-2 -8,-6 -11,-11 -2,-4 -4,-10 -4,-16zm74 -29l32 0 0 11 -21 0 0 14 20 0 0 10 -20 0 0 14 21 0 0 11 -32 0 0 -60zm73 58l0 -59 16 0c6,0 10,1 13,3 3,2 6,4 7,7 1,3 2,6 2,9 0,4 -1,7 -3,9 -1,3 -4,5 -6,7 -3,1 -7,2 -11,2l-7 0 0 22 -11 0zm11 -33l6 0c2,0 5,-1 7,-2 2,-1 3,-3 3,-5 0,-3 -1,-5 -3,-6 -2,-1 -4,-2 -7,-2l-6 0 0 15zm62 -26l9 0 25 59 -12 0 -7 -15 -21 0 -6 15 -12 0 24 -59zm5 16l-7 18 13 0 -6 -18zm63 -16c0,0 0,0 1,0 0,0 0,0 1,0 4,0 7,1 11,2 3,2 5,4 7,7 2,2 3,6 3,10 0,3 0,5 -1,8 -1,2 -3,4 -5,6 -3,2 -6,4 -9,5l16 21 -14 0 -15 -22 0 22 -11 0 0 -59 16 0zm-5 11l0 17 7 0c7,0 10,-3 10,-9 0,-3 -1,-5 -3,-6 -2,-1 -5,-2 -8,-2l-6 0zm45 -11l11 0 0 26 19 -26 13 0 -22 29 22 30 -13 0 -19 -26 0 26 -11 0 0 -59zm-490 76c6,0 11,1 15,4 3,2 6,6 6,12 0,0 0,1 0,1 0,2 0,4 -1,6 0,1 -1,3 -3,5 -1,1 -3,3 -6,4 -2,1 -5,1 -9,1l-7 0 0 -33 5 0zm1 6l0 21c0,0 0,0 0,0 1,0 1,0 1,0 4,0 7,-1 9,-2 3,-2 4,-5 4,-8 0,-2 -1,-4 -1,-6 -1,-1 -3,-3 -5,-4 -2,0 -4,-1 -7,-1 0,0 -1,0 -1,0zm35 -6l18 0 0 6 -12 0 0 8 11 0 0 6 -11 0 0 7 11 0 0 6 -17 0 0 -33zm43 33l-13 -33 7 0 9 25 8 -25 7 0 -13 33 -5 0zm31 -33l18 0 0 6 -12 0 0 8 11 0 0 6 -11 0 0 7 12 0 0 6 -18 0 0 -33zm33 0l6 0 0 27 10 0 0 6 -16 0 0 -33zm28 17c0,-3 1,-7 3,-9 1,-3 3,-5 6,-6 3,-2 5,-2 8,-2 3,0 5,0 7,1 2,1 4,2 5,4 2,1 3,3 4,5 1,3 1,5 1,7 0,0 0,0 0,1 0,0 0,0 0,0 0,2 0,4 -2,7 -1,2 -3,4 -5,6 -3,2 -6,3 -10,3 -3,0 -5,-1 -8,-2 -2,-1 -3,-2 -5,-4 -1,-1 -2,-3 -3,-5 -1,-2 -1,-4 -1,-6zm6 0c0,2 1,3 1,5 1,1 2,2 3,3 1,1 2,2 4,2 1,1 2,1 3,1 2,0 4,0 5,-1 2,-1 4,-3 5,-4 1,-2 1,-4 1,-6 0,-2 0,-4 -1,-6 -1,-1 -2,-3 -4,-4 -1,-1 -3,-1 -5,-1 -2,0 -3,0 -4,0 -2,1 -3,1 -4,2 -1,1 -2,3 -3,4 -1,1 -1,3 -1,5zm43 16l0 -33 9 0c3,0 5,1 7,2 2,1 3,2 4,4 1,1 1,3 1,5 0,2 -1,3 -1,5 -1,1 -2,3 -4,3 -2,1 -4,2 -6,2l-4 0 0 12 -6 0zm6 -18l3 0c2,0 3,-1 4,-1 1,-1 2,-2 2,-4 0,-1 0,-2 -2,-3 -1,0 -2,-1 -4,-1l-3 0 0 9zm29 18l0 -33 8 0 9 25 9 -25 9 0 0 33 -7 0 0 -25 -8 25 -5 0 -9 -25 0 25 -6 0zm50 -33l18 0 0 6 -12 0 0 8 11 0 0 6 -11 0 0 7 12 0 0 6 -18 0 0 -33zm33 0l7 0 14 25 0 -25 6 0 0 33 -7 0 -14 -24 0 24 -6 0 0 -33zm41 6l0 -6 18 0 0 6 -6 0 0 27 -6 0 0 -27 -6 0zm30 3c0,-2 0,-3 1,-5 1,-1 2,-2 4,-3 1,-1 3,-1 4,-1 1,0 3,0 4,0 1,1 3,2 4,3 1,1 2,3 2,6l-6 0c0,-1 -1,-2 -1,-3 -1,0 -2,0 -3,0 -1,0 -2,0 -2,1 -1,0 -1,1 -1,2 0,1 1,2 2,3 2,1 4,2 5,2 2,1 4,2 5,3 1,2 2,4 2,6 0,2 -1,4 -2,6 -1,2 -2,3 -4,4 -1,1 -3,1 -5,1 -2,0 -3,0 -5,-1 -2,-1 -3,-2 -4,-4 -1,-1 -1,-3 -2,-5l7 0c0,1 0,2 1,3 1,1 2,1 3,1 1,0 2,0 3,-1 1,0 1,-1 2,-2 0,-1 0,-1 0,-2 0,-1 0,-2 -1,-2 -1,-1 -3,-1 -5,-2 -3,-1 -5,-3 -6,-4 -1,-1 -2,-3 -2,-6z"/>
   <path class="fil1" d="M44 143l0 -73c5,-9 12,-17 21,-22 32,-54 108,10 48,49 -6,12 -17,19 -33,21l0 -24c9,5 20,6 33,3 11,-44 -22,-57 -48,-49 -2,3 -3,7 -3,10l0 67 -18 18zm-44 -143l169 0 0 169 -169 0 0 -169z"/>
  </g>
 </g>
</svg>
