<svg version="1.2" xmlns="http://www.w3.org/2000/svg" viewBox="0 0 310 368" width="310" height="368"><defs><clipPath clipPathUnits="userSpaceOnUse" id="cp1"><path d="m-898-2159h1584v2880h-1584z"/></clipPath></defs><style>.a{fill:#702c2c}</style><g clip-path="url(#cp1)"><path fill-rule="evenodd" class="a" d="m24.4 341.1c-4.8 2.4-9.3 6.5-13.4 11.5-3.8 4.6-7.6 10-10.2 15.2 15.5-53.1 43.1-110.8 72.5-155.1 3-4.4 5.1-8.5 4.4-15.8-0.3-4 1.1-6.3 4.5-11.6 6.3-9.6-4.2-14.1-4.7-22-0.5-6.8 9.1-5.4 11.6-5.8 1.4-0.2 2.3-2.1 2.6-4.1 1.3-7.9-7.1-22.8-2.3-29.4 7.4-9.9 13.1 6.6 18.8-0.8 3.5-4.4 2.3-5.6 2.1-10.3-0.2-6.6-2-13.8-2.1-20.4-0.3-7.9 3.6-14.5 3.5-22.8 0.5-17.8 18.2 1.8 20.7 8.1 0.9 0.9 1.9 7.4 5.8 3.1 2.6-2.8 6.8-8.9 8.2-10.4 3.3-3.4 4.4-14.2 4.5-17.7 0.1-5.6 3.2-35.5 14.6-24.6 1.7 1.7 6.7 6.7 6.7 8.3-0.1 1.9 6.3 7.6 9.8 8.2 3.3 3.2 13.7-13.9 13.9-16.2 0.2-3.3 9.4-15.6 13-18.4 3-2.4 5.3-10.9 10.9-5.5 6 5.6 7.2 12.2 10.3 15.1 3.4 3.3 15.9-10.6 19.7-13.5 11-7.6 12.2-8.1 19.9-0.7 4.8 4.6 11.7-4.3 17.7-4 10.1 0.5 12.3-3.3 21.3-0.4 5 4.7-10.9 14.5-7.9 17.4 7.1 6.7-2.6 13.7-10.5 19.4-2.3 1.7-15.8 7.6-7 10.5 3.9 3.7 34.8 3.5 19.7 14.7-11.8 9.2-24.8 12.5-36.6 15.9-4.6 1.4-20.9 11.1-15.3 16.4 8.7 8.4 22.5 12.5 31.2 20.8 5.6 5.4 0 3.9-3.8 7.4-3.3 3-12.8 2-16.1 5.1-6.9 6.7-12.3 8.3-20.2 6-5.2-1.7-24.8-1.7-29.8 1.2-0.2-0.1-11.1-1.3-12.1-1.2-3.5 0.2-8.1 0.5-8 5.5 0 2.5-2.3 5.9 0.5 8.6 8.8 8.4 21.8 9.4 28.3 18.1 4 3.8-9.5 7.2-10.5 7.3-2.5 0.2-13.5 0.6-14.9 2.2-2.6 3.1-5.5 5.1-7.9 5.3-9.1 0.8-34.8-11.9-41.8-5.1 6.8 6.4 5.6 14.2 0.2 21.5-2.2 2.9-18.4 0.2-21.3 0.6-4.5 0.7-6.6 4.1-12.5 2.7-6.5-1.6-4.9 12-14.1 10-3-0.7-6.2 1-11.6 4.3-4.2-0.7-39.8 61.6-50.3 90.2-3.3 12.9 2.2 27.9-12 35.2zm-1.4-6.7c4.5-3.3 6.4-17.2 7.2-24.7 5.1-22.6 48.4-99.1 69.6-121.9 7.5-2.3 25.7 2.4 32.7-2.3-7.5 4.3-22.5-1.3-31.2 0.1q7.9-11.3 16.1-22.4c6.2 2.7 19.7 1.6 33.7 0.7 12.4-0.8 25.2-1.5 33.8-0.2-14.1-2.7-26.6-2.4-37.3-1.7-11.4 0.6-20.9 1.5-28.3-1.4 9-11.7 20.9-25.7 30.4-37 10.7-5.5 33-9.2 54.3-10.1 21.6-0.8 42 0.9 47.9 4.9-7.6-5.3-28.1-7.2-48.8-6.6-20.6 0.7-41.4 4.1-50.3 8.2 6-6.9 12.2-13.6 18.5-20.4 5.5-5.6 14.8-14.1 20.2-19.2 11.7 3.1 31.6-0.6 50-5.2 18.7-4.7 36-10.4 41.2-13-11.1 3.7-29.3 8.6-46.8 12.4-17.3 3.8-33.9 6.4-42.6 4.1 17.2-15.2 38-29.6 54.8-41.3 21.7-1.4 31.7-7.9 35.5-9.8-7.1 3.3-26.9 8.4-32.8 7.9 14.9-9.6 33.4-20.3 47.9-28.7-17.9 8.8-39 20.8-55.9 31.7-0.3-7.9 8.3-21.3 10.4-23.2-6.1 5.4-11.8 17.4-13.1 25-13.1 9.2-29.7 20.4-42 30.8-2.9-14.1 21.1-45 16.2-51.3 1 11.2-21.9 36.5-18.1 52.9-12.9 11.5-29.3 26.7-41.3 39.3 4.1-12.7 10.1-30.5 5.6-54.2 1.8 10.6-0.9 38.5-8.8 57.7-7.6 8.4-17.7 19.7-24.8 28.5-2.6-12.8-3.2-25.1-3.9-39.6-0.7-14.5-0.9-25.9-1.6-26.8 0.3 3.6 0 17 0.4 31.9 0.4 15.2 0.6 26.7 2.9 37.2-5.7 7.3-11.2 14.7-16.6 22.1-3-5.6-7.4-27-9.4-30.4 2.2 5.1 4 22.6 7.8 32.6q-5.8 8.2-11.4 16.5c-1.3-8.2-7.8-20.6-8.9-19.1 4.4 6.3 6.3 16.6 6.9 21.1-29.6 34.8-75.9 126.4-89.6 171.8 5.5-10.6 10-19.9 19.5-26.9zm165.4-169.9q-1.6-0.5-3.5-0.8 1.7 0.4 3.5 0.8z"/></g></svg>