<?xml version="1.0" encoding="UTF-8"?>
<!DOCTYPE svg PUBLIC "-//W3C//DTD SVG 1.1//EN" "http://www.w3.org/Graphics/SVG/1.1/DTD/svg11.dtd">
<!-- Creator: CorelDRAW X8 -->
<svg xmlns="http://www.w3.org/2000/svg" xml:space="preserve" width="101.424mm" height="77.0168mm" version="1.1" style="shape-rendering:geometricPrecision; text-rendering:geometricPrecision; image-rendering:optimizeQuality; fill-rule:evenodd; clip-rule:evenodd"
viewBox="0 0 168654 128068"
 xmlns:xlink="http://www.w3.org/1999/xlink">
 <defs>
  <style type="text/css">
   <![CDATA[
    .fil1 {fill:none}
    .fil0 {fill:#700707}
   ]]>
  </style>
   <clipPath id="id0">
    <path d="M0 0l168654 0 0 128068 -168654 0 0 -128068z"/>
   </clipPath>
 </defs>
 <g id="Layer_x0020_1">
  <metadata id="CorelCorpID_0Corel-Layer"/>
  <g>
  </g>
  <g style="clip-path:url(#id0)">
   <g>
    <path class="fil0" d="M-12728 249651c7239,-19732 31754,-62740 34673,-62242 3737,-2267 5922,-3462 7968,-2999 6387,1435 5263,-8000 9766,-6865 4081,956 5518,-1375 8628,-1841 2002,-277 13174,1570 14682,-431 3740,-5031 4518,-10395 -163,-14872 4876,-4663 22566,4118 28890,3536 1646,-141 3604,-1473 5427,-3647 944,-1069 8553,-1390 10244,-1509 703,-54 10033,-2414 7269,-5066 -4486,-6009 -13429,-6696 -19487,-12489 -1942,-1852 -387,-4177 -403,-5923 -15,-3440 3111,-3635 5534,-3776 718,-60 8224,733 8358,853 3469,-2048 16944,-2034 20576,-866 5460,1614 9152,513 13921,-4125 2273,-2107 8823,-1444 11096,-3552 2649,-2403 6505,-1336 2617,-5056 -6010,-5739 -15520,-8596 -21534,-14334 -3826,-3653 7374,-10355 10572,-11337 8135,-2331 17095,-4631 25228,-10968 10421,-7743 -10873,-7575 -13577,-10163 -6088,-2010 3243,-6075 4873,-7233 5400,-3902 12082,-8734 7223,-13369 -2106,-2032 8852,-8743 5457,-12000 -6249,-2016 -7775,604 -14713,268 -4111,-208 -8928,5896 -12218,2759 -5323,-5081 -6129,-4739 -13696,500 -2677,1980 -11246,11560 -13623,9304 -2109,-1982 -2991,-6569 -7074,-10462 -3887,-3721 -5470,2197 -7536,3826 -2512,1957 -8822,10393 -8988,12712 -103,1598 -7309,13337 -9569,11185 -2405,-434 -6863,-4408 -6803,-5685 59,-1093 -3411,-4582 -4606,-5727 -7879,-7522 -9957,13102 -10065,16987 -71,2420 -821,9854 -3122,12224 -957,994 -3860,5231 -5638,7135 -2692,2952 -3366,-1507 -4024,-2136 -1691,-4357 -13936,-17853 -14220,-5552 29,5725 -2616,10237 -2468,15714 92,4506 1316,9490 1496,14071 119,3259 928,4028 -1479,7091 -3905,5113 -7881,-6245 -12980,539 -3321,4559 2496,14825 1615,20272 -224,1400 -822,2737 -1810,2885 -1704,276 -8359,-745 -8016,3999 390,5424 7597,8532 3274,15146 -2376,3691 -3302,5261 -3094,7979 449,5034 -1012,7864 -3036,10909 -20302,30558 -39361,70395 -50016,107027 1795,-3588 4398,-7293 7014,-10475 2827,-3439 5906,-6277 9256,-7982 9765,-5021 6012,-15332 8301,-24239zm-22717 38199c9475,-31303 41366,-94486 61769,-118543 -371,-3061 -1659,-10200 -4725,-14504 734,-1066 5251,7511 6161,13146 2572,-3795 5190,-7599 7822,-11381 -2632,-6918 -3859,-19003 -5382,-22471 1420,2310 4454,17068 6472,20977 3740,-5135 7552,-10238 11484,-15250 -1555,-7259 -1719,-15222 -2002,-25661 -270,-10326 -92,-19511 -255,-22031 463,592 582,8482 1092,18465 507,10022 865,18495 2676,27320 4936,-6076 11887,-13808 17123,-19602 5411,-13277 7281,-32504 6056,-39826 3110,16333 -1049,28625 -3844,37375 8284,-8706 19559,-19157 28455,-27092 -2616,-11308 13191,-28770 12486,-36498 3425,4358 -13143,25645 -11170,35346 8538,-7130 19963,-14879 28994,-21231 913,-5214 4832,-13501 9019,-17217 -1419,1331 -7340,10568 -7133,15977 11620,-7532 26213,-15751 38504,-21841 -9974,5791 -22714,13151 -33002,19786 4068,315 17749,-3174 22594,-5433 -2571,1293 -9494,5792 -24476,6733 -11576,8058 -25930,18015 -37806,28531 6030,1576 17466,-262 29385,-2854 12054,-2609 24675,-6009 32331,-8586 -3590,1846 -15567,5777 -28428,9005 -12725,3196 -26436,5739 -34496,3548 -3756,3572 -10183,9386 -13968,13309 -4306,4625 -8581,9288 -12740,14065 6145,-2848 20457,-5202 34664,-5658 14323,-465 28455,866 33719,4528 -4096,-2756 -18184,-3961 -33049,-3363 -14714,581 -30099,3139 -37503,6950 -6503,7787 -14774,17455 -20978,25503 5143,2012 11679,1404 19574,957 7955,-456 17362,-716 28113,1733 -5775,-1597 -15955,-1025 -25736,-402 -9645,620 -18930,1366 -23267,-495 -3752,5098 -7446,10268 -11082,15506 6013,-987 16329,2838 21549,-91 -4830,3237 -17390,9 -22594,1563 -14616,15723 -44492,68526 -47968,84138 -566,5154 -1869,14750 -4964,17021 -6595,4827 -9718,11268 -13474,18548z"/>
   </g>
  </g>
  <polygon class="fil1" points="0,0 168654,0 168654,128068 0,128068 "/>
 </g>
</svg>
